<?xml version="1.0" encoding="utf-8"?>
<!-- Generator: Adobe Illustrator 23.0.5, SVG Export Plug-In . SVG Version: 6.00 Build 0)  -->
<svg version="1.0" id="Layer_1" xmlns="http://www.w3.org/2000/svg" xmlns:xlink="http://www.w3.org/1999/xlink" x="0px" y="0px"
	 viewBox="0 0 610.9298096 696.342041" style="enable-background:new 0 0 610.9298096 696.342041;" xml:space="preserve">
<style type="text/css">
	.st0{fill:#12EBE0;}
	.st1{fill:#FF004C;}
	.st2{fill:#FFFFFF;}
</style>
<title>tik-tok-logo-001</title>
<g>
	<g>
		<path class="st0" d="M173.1897736,551.8612671c39.4882202,33.5942993,99.113205,29.7677612,128.9903412,6.4107666
			c36.0692139-32.3022461,34.618042-91.3010254,34.618042-91.3010254V31.9245377c0,0,82.5744019-1.7294083,82.5744019-1.1529388
			h0.4473877c-0.6446533-4.6601868-0.9667969-9.3593216-0.9641724-14.0638885V0H303.4622192v426.7174377
			c1.0237427,55.8977966-2.5643921,58.4620667-2.5643921,58.4620667
			c-22.5021362,66.2444458-93.7459259,79.0162354-140.5792084,52.0513306
			C163.89711,542.6906128,168.230484,547.616272,173.1897736,551.8612671z"/>
		<path class="st0" d="M575.7948608,187.5417786v-28.5551758c-34.3198853,1.679718-61.5830078-6.8977661-83.0913696-20.2659149
			C511.0115967,157.3466492,537.5092773,174.789856,575.7948608,187.5417786z"/>
		<path class="st0" d="M33.1672058,453.3841553c5.1284943-75.3983765,75.9149933-167.1963501,202.5895538-175.9129944h0.5167542
			v-28.2172241c-47.697998-13.8452454-208.4834747,12.8215027-235.5379333,171.9472656
			c-10.3863068,159.2449646,92.652832,211.0379333,92.652832,211.0379333l0.0396576-0.0298462
			c-0.1490021-0.2385254-0.2980652-0.4869995-0.4471588-0.7354736
			C35.2940826,585.3064575,29.728157,503.984375,33.1672058,453.3841553z"/>
	</g>
	<g>
		<path class="st1" d="M235.7567596,364.140564c0,0-40.5119934-13.3283997-76.9290009,10.2572021
			c-36.4170074,23.5955505-65.1411896,83.0912781-26.1599426,137.965332
			c7.3111115,10.1904297,16.744751,18.6745605,27.6508026,24.8677368
			c-24.9075928-37.6991577-16.8567963-99.9381409,20.5639954-126.1575928
			c42.8278809-30.0062866,90.0089874-14.1036377,90.0089874-14.1036377V277.4711914h-35.1348419V364.140564z"/>
		<path class="st1" d="M492.7034912,138.7206879c-48.8408813-49.7355042-39.2297974-107.9490891-39.2297974-107.9490891h-33.6537476
			c1.1218262,8.237114,3.2618408,16.3031158,6.3709106,24.0130005
			C435.7026978,78.4099426,455.6504517,115.6817474,492.7034912,138.7206879z"/>
		<path class="st1" d="M575.7948608,187.2038574v88.7267761c0,0-97.4434204,7.1760559-156.9391479-51.2860107v231.2839966
			c6.1523438,151.4328308-109.7581177,207.221283-198.4848785,210.3024597
			c-58.3526306,2.0275879-99.1330566-12.1456299-127.3899994-34.7572021
			c0.1490936,0.2484741,0.2981873,0.4969482,0.4471588,0.7354736
			c32.9086151,54.9436035,144.3661499,90.7046509,246.4412689,39.1503296
			c42.748291-21.5878296,69.276001-55.0131836,85.6953125-86.6594238
			c17.3002319-33.6862793,26.2580566-71.0344849,26.1201782-108.9032593V254.6409912
			c48.204895,53.0849915,159.2449951,52.0612488,159.2449951,52.0612488V187.2038574H575.7948608z"/>
	</g>
	<path class="st2" d="M132.6678162,512.3630981c-38.9812317-54.8740845-10.2570496-114.369812,26.1599579-137.965332
		c36.4169922-23.5856018,76.9290161-10.2572021,76.9290161-10.2572021v-86.6693726
		c-126.67453,8.7166443-197.4610443,100.5146179-202.5895538,175.9129944
		c-3.439003,50.6001892,2.1268768,131.9223328,59.8136902,178.0896912
		c28.256897,22.6115723,69.0373383,36.78479,127.3899994,34.7572021
		c88.7267914-3.0811157,204.6371918-58.8695679,198.484848-210.3024292V224.6446533
		c59.4957275,58.4620667,156.9391479,51.2860107,156.9391479,51.2860107v-88.3888855
		c-38.2855835-12.7519226-64.7832642-30.1951294-83.0913696-48.8210907
		c-37.0529785-23.0389557-57.0007935-60.3107452-66.5126953-83.9361115
		c-3.1090698-7.7098846-5.2490845-15.7758865-6.3709106-24.0130005h-0.4473877
		c0-0.5764694-82.5744019,1.1529388-82.5744019,1.1529388v435.0465088c0,0,1.4511108,58.9987793-34.618042,91.3010254
		c-29.8771362,23.3569946-89.502121,27.1835938-128.9903412-6.4107666
		c-4.9592896-4.2449951-9.2926331-9.1706543-12.8710938-14.6304321
		C149.4125977,531.0376587,139.9789429,522.5535278,132.6678162,512.3630981z"/>
</g>
</svg>
